<svg width="150" height="44" viewBox="0 0 150 44" fill="none" xmlns="http://www.w3.org/2000/svg">
<rect x="0.5" y="0.5" width="149" height="43" rx="4.5" fill="#222222" stroke="#A6A6A6"/>
<path d="M62.87 32.614C62.942 32.77 62.978 32.926 62.978 33.082C62.978 33.358 62.864 33.592 62.636 33.784C62.42 33.976 62.168 34.072 61.88 34.072C61.688 34.072 61.508 34.024 61.34 33.928C61.172 33.82 61.04 33.658 60.944 33.442L59.864 31.03H53.528L52.448 33.442C52.352 33.658 52.22 33.82 52.052 33.928C51.884 34.024 51.698 34.072 51.494 34.072C51.218 34.072 50.966 33.976 50.738 33.784C50.51 33.592 50.396 33.358 50.396 33.082C50.396 32.926 50.432 32.77 50.504 32.614L55.472 21.94C55.58 21.7 55.742 21.52 55.958 21.4C56.186 21.268 56.426 21.202 56.678 21.202C56.93 21.202 57.164 21.268 57.38 21.4C57.608 21.52 57.776 21.7 57.884 21.94L62.87 32.614ZM54.32 29.23H59.072L56.696 23.884L54.32 29.23ZM69.5874 24.982C70.3434 24.982 71.0154 25.174 71.6034 25.558C72.2034 25.942 72.6654 26.488 72.9894 27.196C73.3254 27.892 73.4934 28.696 73.4934 29.608C73.4934 30.52 73.3254 31.318 72.9894 32.002C72.6654 32.686 72.2094 33.214 71.6214 33.586C71.0334 33.958 70.3554 34.144 69.5874 34.144C68.9634 34.144 68.4054 34.012 67.9134 33.748C67.4214 33.484 67.0434 33.118 66.7794 32.65V36.322C66.7794 36.634 66.6774 36.88 66.4734 37.06C66.2694 37.24 65.9994 37.33 65.6634 37.33C65.3274 37.33 65.0514 37.234 64.8354 37.042C64.6314 36.85 64.5294 36.598 64.5294 36.286V26.08C64.5294 25.756 64.6254 25.498 64.8174 25.306C65.0214 25.114 65.2914 25.018 65.6274 25.018C65.9634 25.018 66.2334 25.114 66.4374 25.306C66.6414 25.498 66.7434 25.756 66.7434 26.08V26.53C67.0074 26.038 67.3854 25.66 67.8774 25.396C68.3814 25.12 68.9514 24.982 69.5874 24.982ZM68.9934 32.398C69.7014 32.398 70.2534 32.158 70.6494 31.678C71.0454 31.186 71.2434 30.496 71.2434 29.608C71.2434 28.696 71.0454 27.988 70.6494 27.484C70.2534 26.98 69.7014 26.728 68.9934 26.728C68.2734 26.728 67.7154 26.974 67.3194 27.466C66.9354 27.958 66.7434 28.66 66.7434 29.572C66.7434 30.472 66.9354 31.168 67.3194 31.66C67.7154 32.152 68.2734 32.398 68.9934 32.398ZM80.3979 24.982C81.1539 24.982 81.8259 25.174 82.4139 25.558C83.0139 25.942 83.4759 26.488 83.7999 27.196C84.1359 27.892 84.3039 28.696 84.3039 29.608C84.3039 30.52 84.1359 31.318 83.7999 32.002C83.4759 32.686 83.0199 33.214 82.4319 33.586C81.8439 33.958 81.1659 34.144 80.3979 34.144C79.7739 34.144 79.2159 34.012 78.7239 33.748C78.2319 33.484 77.8539 33.118 77.5899 32.65V36.322C77.5899 36.634 77.4879 36.88 77.2839 37.06C77.0799 37.24 76.8099 37.33 76.4739 37.33C76.1379 37.33 75.8619 37.234 75.6459 37.042C75.4419 36.85 75.3399 36.598 75.3399 36.286V26.08C75.3399 25.756 75.4359 25.498 75.6279 25.306C75.8319 25.114 76.1019 25.018 76.4379 25.018C76.7739 25.018 77.0439 25.114 77.2479 25.306C77.4519 25.498 77.5539 25.756 77.5539 26.08V26.53C77.8179 26.038 78.1959 25.66 78.6879 25.396C79.1919 25.12 79.7619 24.982 80.3979 24.982ZM79.8039 32.398C80.5119 32.398 81.0639 32.158 81.4599 31.678C81.8559 31.186 82.0539 30.496 82.0539 29.608C82.0539 28.696 81.8559 27.988 81.4599 27.484C81.0639 26.98 80.5119 26.728 79.8039 26.728C79.0839 26.728 78.5259 26.974 78.1299 27.466C77.7459 27.958 77.5539 28.66 77.5539 29.572C77.5539 30.472 77.7459 31.168 78.1299 31.66C78.5259 32.152 79.0839 32.398 79.8039 32.398ZM95.6272 34.162C94.7032 34.162 93.8272 34.042 92.9992 33.802C92.1832 33.55 91.5172 33.214 91.0012 32.794C90.7252 32.59 90.5872 32.302 90.5872 31.93C90.5872 31.678 90.6592 31.462 90.8032 31.282C90.9592 31.09 91.1392 30.994 91.3432 30.994C91.5592 30.994 91.8052 31.078 92.0812 31.246C92.5972 31.618 93.1372 31.888 93.7012 32.056C94.2652 32.224 94.8892 32.308 95.5732 32.308C96.4492 32.308 97.1212 32.158 97.5892 31.858C98.0572 31.546 98.2912 31.096 98.2912 30.508C98.2912 30.052 98.0692 29.704 97.6252 29.464C97.1932 29.212 96.4672 28.972 95.4472 28.744C94.3912 28.516 93.5332 28.252 92.8732 27.952C92.2132 27.652 91.7152 27.268 91.3792 26.8C91.0432 26.332 90.8752 25.738 90.8752 25.018C90.8752 24.274 91.0852 23.608 91.5052 23.02C91.9252 22.432 92.5072 21.976 93.2512 21.652C94.0072 21.316 94.8532 21.148 95.7892 21.148C97.5052 21.148 98.9032 21.604 99.9832 22.516C100.139 22.648 100.247 22.78 100.307 22.912C100.379 23.032 100.415 23.188 100.415 23.38C100.415 23.632 100.337 23.854 100.181 24.046C100.037 24.226 99.8632 24.316 99.6592 24.316C99.5392 24.316 99.4252 24.298 99.3172 24.262C99.2212 24.226 99.0892 24.16 98.9212 24.064C98.4292 23.704 97.9492 23.44 97.4812 23.272C97.0252 23.092 96.4612 23.002 95.7892 23.002C94.9732 23.002 94.3252 23.17 93.8452 23.506C93.3772 23.83 93.1432 24.286 93.1432 24.874C93.1432 25.366 93.3532 25.744 93.7732 26.008C94.1932 26.272 94.9072 26.518 95.9152 26.746C96.9832 26.986 97.8472 27.256 98.5072 27.556C99.1792 27.844 99.6892 28.216 100.037 28.672C100.397 29.128 100.577 29.698 100.577 30.382C100.577 31.126 100.367 31.786 99.9472 32.362C99.5392 32.926 98.9572 33.37 98.2012 33.694C97.4572 34.006 96.5992 34.162 95.6272 34.162ZM106.965 32.434C107.565 32.47 107.865 32.74 107.865 33.244C107.865 33.532 107.745 33.754 107.505 33.91C107.277 34.054 106.947 34.114 106.515 34.09L106.029 34.054C104.013 33.91 103.005 32.83 103.005 30.814V26.89H102.105C101.781 26.89 101.529 26.818 101.349 26.674C101.181 26.53 101.097 26.32 101.097 26.044C101.097 25.768 101.181 25.558 101.349 25.414C101.529 25.27 101.781 25.198 102.105 25.198H103.005V23.542C103.005 23.218 103.107 22.96 103.311 22.768C103.515 22.576 103.791 22.48 104.139 22.48C104.475 22.48 104.745 22.576 104.949 22.768C105.153 22.96 105.255 23.218 105.255 23.542V25.198H106.785C107.109 25.198 107.355 25.27 107.523 25.414C107.703 25.558 107.793 25.768 107.793 26.044C107.793 26.32 107.703 26.53 107.523 26.674C107.355 26.818 107.109 26.89 106.785 26.89H105.255V30.976C105.255 31.864 105.663 32.338 106.479 32.398L106.965 32.434ZM113.051 34.144C112.151 34.144 111.359 33.958 110.675 33.586C110.003 33.214 109.481 32.68 109.109 31.984C108.737 31.288 108.551 30.478 108.551 29.554C108.551 28.63 108.737 27.826 109.109 27.142C109.481 26.446 110.003 25.912 110.675 25.54C111.359 25.168 112.151 24.982 113.051 24.982C113.951 24.982 114.737 25.168 115.409 25.54C116.093 25.912 116.615 26.446 116.975 27.142C117.347 27.826 117.533 28.63 117.533 29.554C117.533 30.478 117.347 31.288 116.975 31.984C116.615 32.68 116.093 33.214 115.409 33.586C114.737 33.958 113.951 34.144 113.051 34.144ZM113.033 32.398C113.765 32.398 114.323 32.158 114.707 31.678C115.091 31.198 115.283 30.49 115.283 29.554C115.283 28.63 115.091 27.928 114.707 27.448C114.323 26.956 113.771 26.71 113.051 26.71C112.331 26.71 111.773 26.956 111.377 27.448C110.993 27.928 110.801 28.63 110.801 29.554C110.801 30.49 110.993 31.198 111.377 31.678C111.761 32.158 112.313 32.398 113.033 32.398ZM124.305 25.018C124.617 24.994 124.863 25.06 125.043 25.216C125.223 25.372 125.313 25.606 125.313 25.918C125.313 26.242 125.235 26.482 125.079 26.638C124.923 26.794 124.641 26.896 124.233 26.944L123.693 26.998C122.985 27.07 122.463 27.31 122.127 27.718C121.803 28.126 121.641 28.636 121.641 29.248V33.028C121.641 33.376 121.533 33.646 121.317 33.838C121.101 34.018 120.831 34.108 120.507 34.108C120.183 34.108 119.913 34.018 119.697 33.838C119.493 33.646 119.391 33.376 119.391 33.028V26.062C119.391 25.726 119.493 25.468 119.697 25.288C119.913 25.108 120.177 25.018 120.489 25.018C120.801 25.018 121.053 25.108 121.245 25.288C121.437 25.456 121.533 25.702 121.533 26.026V26.746C121.761 26.218 122.097 25.81 122.541 25.522C122.997 25.234 123.501 25.072 124.053 25.036L124.305 25.018ZM133.072 31.588C133.276 31.588 133.438 31.666 133.558 31.822C133.69 31.978 133.756 32.188 133.756 32.452C133.756 32.824 133.534 33.136 133.09 33.388C132.682 33.616 132.22 33.802 131.704 33.946C131.188 34.078 130.696 34.144 130.228 34.144C128.812 34.144 127.69 33.736 126.862 32.92C126.034 32.104 125.62 30.988 125.62 29.572C125.62 28.672 125.8 27.874 126.16 27.178C126.52 26.482 127.024 25.942 127.672 25.558C128.332 25.174 129.076 24.982 129.904 24.982C130.696 24.982 131.386 25.156 131.974 25.504C132.562 25.852 133.018 26.344 133.342 26.98C133.666 27.616 133.828 28.366 133.828 29.23C133.828 29.746 133.6 30.004 133.144 30.004H127.834C127.906 30.832 128.14 31.444 128.536 31.84C128.932 32.224 129.508 32.416 130.264 32.416C130.648 32.416 130.984 32.368 131.272 32.272C131.572 32.176 131.908 32.044 132.28 31.876C132.64 31.684 132.904 31.588 133.072 31.588ZM129.958 26.566C129.346 26.566 128.854 26.758 128.482 27.142C128.122 27.526 127.906 28.078 127.834 28.798H131.902C131.878 28.066 131.698 27.514 131.362 27.142C131.026 26.758 130.558 26.566 129.958 26.566Z" fill="white"/>
<path d="M51.38 16C51.1867 16 51.0333 15.9467 50.92 15.84C50.8133 15.7333 50.76 15.5833 50.76 15.39V9.56C50.76 9.36667 50.8133 9.21667 50.92 9.11C51.0333 9.00333 51.1867 8.95 51.38 8.95H53.36C54.5133 8.95 55.4067 9.26 56.04 9.88C56.68 10.4933 57 11.3567 57 12.47C57 13.59 56.68 14.46 56.04 15.08C55.4067 15.6933 54.5133 16 53.36 16H51.38ZM53.28 14.95C54.9 14.95 55.71 14.1233 55.71 12.47C55.71 10.8233 54.9 10 53.28 10H52.05V14.95H53.28ZM60.4191 16.08C59.9191 16.08 59.4791 15.9767 59.0991 15.77C58.7257 15.5633 58.4357 15.2667 58.2291 14.88C58.0224 14.4933 57.9191 14.0433 57.9191 13.53C57.9191 13.0167 58.0224 12.57 58.2291 12.19C58.4357 11.8033 58.7257 11.5067 59.0991 11.3C59.4791 11.0933 59.9191 10.99 60.4191 10.99C60.9191 10.99 61.3557 11.0933 61.7291 11.3C62.1091 11.5067 62.3991 11.8033 62.5991 12.19C62.8057 12.57 62.9091 13.0167 62.9091 13.53C62.9091 14.0433 62.8057 14.4933 62.5991 14.88C62.3991 15.2667 62.1091 15.5633 61.7291 15.77C61.3557 15.9767 60.9191 16.08 60.4191 16.08ZM60.4091 15.11C60.8157 15.11 61.1257 14.9767 61.3391 14.71C61.5524 14.4433 61.6591 14.05 61.6591 13.53C61.6591 13.0167 61.5524 12.6267 61.3391 12.36C61.1257 12.0867 60.8191 11.95 60.4191 11.95C60.0191 11.95 59.7091 12.0867 59.4891 12.36C59.2757 12.6267 59.1691 13.0167 59.1691 13.53C59.1691 14.05 59.2757 14.4433 59.4891 14.71C59.7024 14.9767 60.0091 15.11 60.4091 15.11ZM70.4729 11.38C70.5196 11.26 70.5862 11.17 70.6729 11.11C70.7662 11.05 70.8662 11.02 70.9729 11.02C71.1262 11.02 71.2629 11.0733 71.3829 11.18C71.5096 11.28 71.5729 11.4067 71.5729 11.56C71.5729 11.6467 71.5562 11.7233 71.5229 11.79L69.8729 15.66C69.8196 15.7867 69.7362 15.8833 69.6229 15.95C69.5162 16.0167 69.3962 16.05 69.2629 16.05C69.1362 16.05 69.0162 16.0167 68.9029 15.95C68.7962 15.8833 68.7162 15.7867 68.6629 15.66L67.4729 12.8L66.3229 15.66C66.2696 15.7867 66.1862 15.8833 66.0729 15.95C65.9662 16.0167 65.8462 16.05 65.7129 16.05C65.5862 16.05 65.4662 16.0167 65.3529 15.95C65.2396 15.8833 65.1562 15.7867 65.1029 15.66L63.4629 11.79C63.4296 11.7033 63.4129 11.63 63.4129 11.57C63.4129 11.4167 63.4796 11.2867 63.6129 11.18C63.7462 11.0667 63.8929 11.01 64.0529 11.01C64.1662 11.01 64.2696 11.04 64.3629 11.1C64.4562 11.16 64.5262 11.25 64.5729 11.37L65.7529 14.42L66.9629 11.4C67.0162 11.2733 67.0929 11.18 67.1929 11.12C67.2929 11.0533 67.4029 11.02 67.5229 11.02C67.6429 11.02 67.7529 11.0533 67.8529 11.12C67.9529 11.18 68.0296 11.2733 68.0829 11.4L69.3029 14.43L70.4729 11.38ZM75.2673 10.99C75.854 10.99 76.2907 11.1567 76.5773 11.49C76.864 11.8233 77.0073 12.3267 77.0073 13V15.46C77.0073 15.6467 76.9507 15.7933 76.8373 15.9C76.7307 16.0067 76.5807 16.06 76.3873 16.06C76.194 16.06 76.0407 16.0067 75.9273 15.9C75.814 15.7933 75.7573 15.6467 75.7573 15.46V13.07C75.7573 12.69 75.684 12.4133 75.5373 12.24C75.3973 12.0667 75.174 11.98 74.8673 11.98C74.5073 11.98 74.2173 12.0933 73.9973 12.32C73.784 12.5467 73.6773 12.85 73.6773 13.23V15.46C73.6773 15.6467 73.6207 15.7933 73.5073 15.9C73.394 16.0067 73.2407 16.06 73.0473 16.06C72.854 16.06 72.7007 16.0067 72.5873 15.9C72.4807 15.7933 72.4273 15.6467 72.4273 15.46V11.59C72.4273 11.4167 72.484 11.2767 72.5973 11.17C72.7107 11.0633 72.864 11.01 73.0573 11.01C73.2307 11.01 73.3707 11.0633 73.4773 11.17C73.5907 11.27 73.6473 11.4033 73.6473 11.57V11.84C73.814 11.5667 74.0373 11.3567 74.3173 11.21C74.5973 11.0633 74.914 10.99 75.2673 10.99ZM78.897 16.06C78.717 16.06 78.567 16.01 78.447 15.91C78.3336 15.8033 78.277 15.6533 78.277 15.46V9.49C78.277 9.29667 78.3336 9.15 78.447 9.05C78.567 8.95 78.717 8.9 78.897 8.9C79.077 8.9 79.227 8.95 79.347 9.05C79.467 9.15 79.527 9.29667 79.527 9.49V15.46C79.527 15.6533 79.467 15.8033 79.347 15.91C79.227 16.01 79.077 16.06 78.897 16.06ZM83.046 16.08C82.546 16.08 82.106 15.9767 81.726 15.77C81.3527 15.5633 81.0627 15.2667 80.856 14.88C80.6493 14.4933 80.546 14.0433 80.546 13.53C80.546 13.0167 80.6493 12.57 80.856 12.19C81.0627 11.8033 81.3527 11.5067 81.726 11.3C82.106 11.0933 82.546 10.99 83.046 10.99C83.546 10.99 83.9827 11.0933 84.356 11.3C84.736 11.5067 85.026 11.8033 85.226 12.19C85.4327 12.57 85.536 13.0167 85.536 13.53C85.536 14.0433 85.4327 14.4933 85.226 14.88C85.026 15.2667 84.736 15.5633 84.356 15.77C83.9827 15.9767 83.546 16.08 83.046 16.08ZM83.036 15.11C83.4427 15.11 83.7527 14.9767 83.966 14.71C84.1793 14.4433 84.286 14.05 84.286 13.53C84.286 13.0167 84.1793 12.6267 83.966 12.36C83.7527 12.0867 83.446 11.95 83.046 11.95C82.646 11.95 82.336 12.0867 82.116 12.36C81.9027 12.6267 81.796 13.0167 81.796 13.53C81.796 14.05 81.9027 14.4433 82.116 14.71C82.3293 14.9767 82.636 15.11 83.036 15.11ZM88.688 10.99C89.368 10.99 89.8713 11.16 90.198 11.5C90.5313 11.8333 90.698 12.3433 90.698 13.03V15.47C90.698 15.65 90.6446 15.7933 90.538 15.9C90.4313 16 90.2846 16.05 90.098 16.05C89.9246 16.05 89.7813 15.9967 89.668 15.89C89.5613 15.7833 89.508 15.6433 89.508 15.47V15.25C89.3946 15.51 89.2146 15.7133 88.968 15.86C88.728 16.0067 88.448 16.08 88.128 16.08C87.8013 16.08 87.5046 16.0133 87.238 15.88C86.9713 15.7467 86.7613 15.5633 86.608 15.33C86.4546 15.0967 86.378 14.8367 86.378 14.55C86.378 14.19 86.468 13.9067 86.648 13.7C86.8346 13.4933 87.1346 13.3433 87.548 13.25C87.9613 13.1567 88.5313 13.11 89.258 13.11H89.508V12.88C89.508 12.5533 89.438 12.3167 89.298 12.17C89.158 12.0167 88.9313 11.94 88.618 11.94C88.4246 11.94 88.228 11.97 88.028 12.03C87.828 12.0833 87.5913 12.1633 87.318 12.27C87.1446 12.3567 87.018 12.4 86.938 12.4C86.818 12.4 86.718 12.3567 86.638 12.27C86.5646 12.1833 86.528 12.07 86.528 11.93C86.528 11.8167 86.5546 11.72 86.608 11.64C86.668 11.5533 86.7646 11.4733 86.898 11.4C87.1313 11.2733 87.408 11.1733 87.728 11.1C88.0546 11.0267 88.3746 10.99 88.688 10.99ZM88.378 15.18C88.7113 15.18 88.9813 15.07 89.188 14.85C89.4013 14.6233 89.508 14.3333 89.508 13.98V13.77H89.328C88.8813 13.77 88.5346 13.79 88.288 13.83C88.0413 13.87 87.8646 13.94 87.758 14.04C87.6513 14.14 87.598 14.2767 87.598 14.45C87.598 14.6633 87.6713 14.84 87.818 14.98C87.9713 15.1133 88.158 15.18 88.378 15.18ZM96.0484 8.9C96.235 8.9 96.3884 8.95333 96.5084 9.06C96.6284 9.16667 96.6884 9.30667 96.6884 9.48V15.46C96.6884 15.64 96.6317 15.7833 96.5184 15.89C96.405 15.9967 96.255 16.05 96.0684 16.05C95.8817 16.05 95.7317 15.9967 95.6184 15.89C95.505 15.7833 95.4484 15.64 95.4484 15.46V15.21C95.3017 15.4833 95.0884 15.6967 94.8084 15.85C94.535 16.0033 94.2217 16.08 93.8684 16.08C93.4484 16.08 93.0717 15.9733 92.7384 15.76C92.4117 15.5467 92.155 15.2467 91.9684 14.86C91.7884 14.4667 91.6984 14.0167 91.6984 13.51C91.6984 13.0033 91.7884 12.56 91.9684 12.18C92.155 11.8 92.4117 11.5067 92.7384 11.3C93.065 11.0933 93.4417 10.99 93.8684 10.99C94.2217 10.99 94.535 11.0633 94.8084 11.21C95.0817 11.3567 95.2917 11.5633 95.4384 11.83V9.46C95.4384 9.29333 95.4917 9.16 95.5984 9.06C95.7117 8.95333 95.8617 8.9 96.0484 8.9ZM94.1984 15.11C94.5984 15.11 94.905 14.9733 95.1184 14.7C95.3384 14.4267 95.4484 14.0367 95.4484 13.53C95.4484 13.0233 95.3384 12.6367 95.1184 12.37C94.905 12.0967 94.6017 11.96 94.2084 11.96C93.8084 11.96 93.4984 12.0933 93.2784 12.36C93.0584 12.6267 92.9484 13.01 92.9484 13.51C92.9484 14.0167 93.0584 14.41 93.2784 14.69C93.4984 14.97 93.805 15.11 94.1984 15.11ZM102.919 16.08C102.419 16.08 101.979 15.9767 101.599 15.77C101.226 15.5633 100.936 15.2667 100.729 14.88C100.522 14.4933 100.419 14.0433 100.419 13.53C100.419 13.0167 100.522 12.57 100.729 12.19C100.936 11.8033 101.226 11.5067 101.599 11.3C101.979 11.0933 102.419 10.99 102.919 10.99C103.419 10.99 103.856 11.0933 104.229 11.3C104.609 11.5067 104.899 11.8033 105.099 12.19C105.306 12.57 105.409 13.0167 105.409 13.53C105.409 14.0433 105.306 14.4933 105.099 14.88C104.899 15.2667 104.609 15.5633 104.229 15.77C103.856 15.9767 103.419 16.08 102.919 16.08ZM102.909 15.11C103.316 15.11 103.626 14.9767 103.839 14.71C104.052 14.4433 104.159 14.05 104.159 13.53C104.159 13.0167 104.052 12.6267 103.839 12.36C103.626 12.0867 103.319 11.95 102.919 11.95C102.519 11.95 102.209 12.0867 101.989 12.36C101.776 12.6267 101.669 13.0167 101.669 13.53C101.669 14.05 101.776 14.4433 101.989 14.71C102.202 14.9767 102.509 15.11 102.909 15.11ZM109.281 10.99C109.868 10.99 110.304 11.1567 110.591 11.49C110.878 11.8233 111.021 12.3267 111.021 13V15.46C111.021 15.6467 110.964 15.7933 110.851 15.9C110.744 16.0067 110.594 16.06 110.401 16.06C110.208 16.06 110.054 16.0067 109.941 15.9C109.828 15.7933 109.771 15.6467 109.771 15.46V13.07C109.771 12.69 109.698 12.4133 109.551 12.24C109.411 12.0667 109.188 11.98 108.881 11.98C108.521 11.98 108.231 12.0933 108.011 12.32C107.798 12.5467 107.691 12.85 107.691 13.23V15.46C107.691 15.6467 107.634 15.7933 107.521 15.9C107.408 16.0067 107.254 16.06 107.061 16.06C106.868 16.06 106.714 16.0067 106.601 15.9C106.494 15.7933 106.441 15.6467 106.441 15.46V11.59C106.441 11.4167 106.498 11.2767 106.611 11.17C106.724 11.0633 106.878 11.01 107.071 11.01C107.244 11.01 107.384 11.0633 107.491 11.17C107.604 11.27 107.661 11.4033 107.661 11.57V11.84C107.828 11.5667 108.051 11.3567 108.331 11.21C108.611 11.0633 108.928 10.99 109.281 10.99ZM117.545 15.13C117.879 15.15 118.045 15.3 118.045 15.58C118.045 15.74 117.979 15.8633 117.845 15.95C117.719 16.03 117.535 16.0633 117.295 16.05L117.025 16.03C115.905 15.95 115.345 15.35 115.345 14.23V12.05H114.845C114.665 12.05 114.525 12.01 114.425 11.93C114.332 11.85 114.285 11.7333 114.285 11.58C114.285 11.4267 114.332 11.31 114.425 11.23C114.525 11.15 114.665 11.11 114.845 11.11H115.345V10.19C115.345 10.01 115.402 9.86667 115.515 9.76C115.629 9.65333 115.782 9.6 115.975 9.6C116.162 9.6 116.312 9.65333 116.425 9.76C116.539 9.86667 116.595 10.01 116.595 10.19V11.11H117.445C117.625 11.11 117.762 11.15 117.855 11.23C117.955 11.31 118.005 11.4267 118.005 11.58C118.005 11.7333 117.955 11.85 117.855 11.93C117.762 12.01 117.625 12.05 117.445 12.05H116.595V14.32C116.595 14.8133 116.822 15.0767 117.275 15.11L117.545 15.13ZM121.557 10.99C122.704 10.99 123.277 11.66 123.277 13V15.46C123.277 15.6467 123.22 15.7933 123.107 15.9C123 16.0067 122.85 16.06 122.657 16.06C122.464 16.06 122.31 16.0067 122.197 15.9C122.084 15.7933 122.027 15.6467 122.027 15.46V13C122.027 12.6467 121.954 12.39 121.807 12.23C121.667 12.0633 121.444 11.98 121.137 11.98C120.777 11.98 120.487 12.0933 120.267 12.32C120.054 12.5467 119.947 12.85 119.947 13.23V15.46C119.947 15.6467 119.89 15.7933 119.777 15.9C119.664 16.0067 119.51 16.06 119.317 16.06C119.124 16.06 118.97 16.0067 118.857 15.9C118.75 15.7933 118.697 15.6467 118.697 15.46V9.48C118.697 9.30667 118.754 9.16667 118.867 9.06C118.987 8.95333 119.14 8.9 119.327 8.9C119.514 8.9 119.664 8.95 119.777 9.05C119.89 9.15 119.947 9.28667 119.947 9.46V11.79C120.114 11.53 120.334 11.3333 120.607 11.2C120.887 11.06 121.204 10.99 121.557 10.99ZM128.416 14.66C128.53 14.66 128.62 14.7033 128.686 14.79C128.76 14.8767 128.796 14.9933 128.796 15.14C128.796 15.3467 128.673 15.52 128.426 15.66C128.2 15.7867 127.943 15.89 127.656 15.97C127.37 16.0433 127.096 16.08 126.836 16.08C126.05 16.08 125.426 15.8533 124.966 15.4C124.506 14.9467 124.276 14.3267 124.276 13.54C124.276 13.04 124.376 12.5967 124.576 12.21C124.776 11.8233 125.056 11.5233 125.416 11.31C125.783 11.0967 126.196 10.99 126.656 10.99C127.096 10.99 127.48 11.0867 127.806 11.28C128.133 11.4733 128.386 11.7467 128.566 12.1C128.746 12.4533 128.836 12.87 128.836 13.35C128.836 13.6367 128.71 13.78 128.456 13.78H125.506C125.546 14.24 125.676 14.58 125.896 14.8C126.116 15.0133 126.436 15.12 126.856 15.12C127.07 15.12 127.256 15.0933 127.416 15.04C127.583 14.9867 127.77 14.9133 127.976 14.82C128.176 14.7133 128.323 14.66 128.416 14.66ZM126.686 11.87C126.346 11.87 126.073 11.9767 125.866 12.19C125.666 12.4033 125.546 12.71 125.506 13.11H127.766C127.753 12.7033 127.653 12.3967 127.466 12.19C127.28 11.9767 127.02 11.87 126.686 11.87Z" fill="white"/>
<path d="M35.0457 22.8903C35.0123 19.3528 38.0969 17.6319 38.2377 17.552C36.4907 15.1339 33.7822 14.8038 32.8309 14.7774C30.5568 14.55 28.3504 16.069 27.1925 16.069C26.0106 16.069 24.2265 14.7994 22.3036 14.8363C19.8285 14.8731 17.5146 16.2323 16.2447 18.344C13.6242 22.6498 15.5777 28.9768 18.088 32.4572C19.344 34.1615 20.8113 36.065 22.7324 35.9983C24.611 35.9245 25.3131 34.8613 27.5807 34.8613C29.8269 34.8613 30.4864 35.9983 32.4455 35.9553C34.4621 35.9245 35.7311 34.2431 36.9427 32.5231C38.3942 30.5695 38.9768 28.6458 39 28.5465C38.9528 28.5316 35.0836 27.1303 35.0447 22.8903H35.0457ZM31.3451 12.4884C32.3557 11.2882 33.0476 9.65682 32.855 8C31.3933 8.06146 29.5638 8.96055 28.5106 10.1336C27.5779 11.1688 26.7461 12.8634 26.96 14.4561C28.6033 14.572 30.2901 13.6694 31.3442 12.4884H31.3451Z" fill="white"/>
</svg>
